<?xml version="1.0" encoding="UTF-8" standalone="no"?>
<!-- Created with Inkscape (http://www.inkscape.org/) -->

<svg
   xmlns:dc="http://purl.org/dc/elements/1.1/"
   xmlns:cc="http://creativecommons.org/ns#"
   xmlns:rdf="http://www.w3.org/1999/02/22-rdf-syntax-ns#"
   xmlns:svg="http://www.w3.org/2000/svg"
   xmlns="http://www.w3.org/2000/svg"
   xmlns:xlink="http://www.w3.org/1999/xlink"
   xmlns:sodipodi="http://sodipodi.sourceforge.net/DTD/sodipodi-0.dtd"
   xmlns:inkscape="http://www.inkscape.org/namespaces/inkscape"
   width="158.29573mm"
   height="45.301704mm"
   viewBox="0 0 158.29573 45.301705"
   version="1.1"
   id="svg8"
   inkscape:version="0.92.2 2405546, 2018-03-11"
   sodipodi:docname="logo_planga2-with-text-rainbow-black.svg">
  <defs
     id="defs2">
    <linearGradient
       id="linearGradient4587"
       inkscape:collect="always">
      <stop
         id="stop4593"
         offset="0"
         style="stop-color:#ff0000;stop-opacity:1" />
      <stop
         style="stop-color:#ff3300;stop-opacity:1;"
         offset="0.09750859"
         id="stop4598" />
      <stop
         id="stop4600"
         offset="0.25675702"
         style="stop-color:#ffd42a;stop-opacity:1" />
      <stop
         style="stop-color:#66ff00;stop-opacity:1"
         offset="0.38916048"
         id="stop4602" />
      <stop
         id="stop4604"
         offset="0.50915122"
         style="stop-color:#2ad4ff;stop-opacity:1" />
      <stop
         style="stop-color:#0066ff;stop-opacity:1"
         offset="0.60442686"
         id="stop4606" />
      <stop
         id="stop4608"
         offset="0.72789633"
         style="stop-color:#d42aff;stop-opacity:1" />
      <stop
         id="stop4595"
         offset="1"
         style="stop-color:#ff6600;stop-opacity:1" />
    </linearGradient>
    <linearGradient
       inkscape:collect="always"
       xlink:href="#linearGradient4587"
       id="linearGradient4591"
       gradientUnits="userSpaceOnUse"
       x1="273.44531"
       y1="637.29883"
       x2="349.24805"
       y2="593.47101" />
    <linearGradient
       inkscape:collect="always"
       xlink:href="#linearGradient4587"
       id="linearGradient4627"
       gradientUnits="userSpaceOnUse"
       x1="273.44531"
       y1="637.29883"
       x2="349.24805"
       y2="593.47101"
       gradientTransform="matrix(0.26458333,0,0,0.26458333,-12.834823,-12.749741)" />
  </defs>
  <sodipodi:namedview
     id="base"
     pagecolor="#ff00a6"
     bordercolor="#666666"
     borderopacity="1.0"
     inkscape:pageopacity="0"
     inkscape:pageshadow="2"
     inkscape:zoom="0.98994949"
     inkscape:cx="282.57601"
     inkscape:cy="144.03666"
     inkscape:document-units="mm"
     inkscape:current-layer="layer1"
     showgrid="false"
     fit-margin-top="10"
     fit-margin-left="10"
     fit-margin-right="10"
     fit-margin-bottom="10"
     inkscape:window-width="1920"
     inkscape:window-height="1026"
     inkscape:window-x="0"
     inkscape:window-y="0"
     inkscape:window-maximized="1"
     inkscape:pagecheckerboard="true" />
  <metadata
     id="metadata5">
    <rdf:RDF>
      <cc:Work
         rdf:about="">
        <dc:format>image/svg+xml</dc:format>
        <dc:type
           rdf:resource="http://purl.org/dc/dcmitype/StillImage" />
        <dc:title></dc:title>
      </cc:Work>
    </rdf:RDF>
  </metadata>
  <g
     inkscape:label="Layer 1"
     inkscape:groupmode="layer"
     id="layer1"
     transform="translate(-52.413972,-141.41912)">
    <path
       inkscape:connector-curvature="0"
       style="fill:#dbe2e3;fill-opacity:1;stroke-width:0.26458332"
       d="m 86.126156,155.47755 c -0.872603,-0.0271 -2.000459,0.0999 -2.199349,0.33952 -0.315163,0.37974 -4.010776,10.97176 -4.012676,11.50058 -0.0011,0.29159 1.308902,-0.43346 3.665411,-2.02881 0.467693,-0.31662 1.013515,-1.54317 2.175576,-4.89117 0.853051,-2.45771 1.487948,-4.57097 1.410769,-4.69584 -0.08439,-0.13654 -0.516168,-0.20802 -1.039731,-0.22428 z m -5.836853,0.22738 c -1.599219,0.0247 -4.717058,0.23722 -5.863207,0.43718 -0.471175,0.0822 -0.963504,0.3526 -1.093991,0.601 -0.130487,0.2484 -1.043083,2.80938 -2.027782,5.69112 l -1.790073,5.23948 1.031978,1.06091 c 1.251498,1.2864 2.426173,2.03979 3.895886,2.49804 1.259285,0.39265 1.50881,0.37005 1.816428,-0.1633 0.620043,-1.07504 5.218861,-15.18031 4.994527,-15.31896 -0.06623,-0.0409 -0.430692,-0.0537 -0.963766,-0.0455 z"
       id="path4619" />
    <path
       id="path4531"
       d="m 87.398429,153.22394 c -5.156883,0 -10.317197,0.16124 -13.173871,0.48421 -4.706197,0.53207 -6.143062,1.09982 -7.874971,3.11092 -0.89947,1.04446 -1.285304,1.30163 -1.951821,1.30173 -0.456822,7e-5 -1.079728,0.20836 -1.384411,0.46302 -0.4957,0.41432 -0.557472,0.76778 -0.589111,3.36052 -0.03456,2.83208 -0.01982,2.91128 0.671277,3.50573 0.440383,0.3788 1.04934,0.60823 1.614371,0.60823 0.828355,0 1.001014,0.14898 1.988508,1.71256 2.89537,4.5845 8.872633,7.41005 12.024074,5.6844 0.582083,-0.31874 1.485691,-0.79727 2.008145,-1.0635 0.522454,-0.26624 1.262912,-0.89522 1.645894,-1.39733 1.005107,-1.31777 3.107507,-2.29161 4.930449,-2.28461 1.971181,0.008 3.382603,0.69679 4.80074,2.34353 0.641581,0.74499 1.3388,1.35488 1.54926,1.35495 0.21046,7e-5 0.840515,0.3172 1.399916,0.70487 0.559398,0.38766 1.458497,0.78918 1.998326,0.89245 0.539835,0.10365 1.160447,0.15202 1.378728,0.10852 0.218279,-0.0435 0.813586,-0.16143 1.322917,-0.26252 2.929231,-0.58134 6.538381,-3.26207 8.355041,-6.2053 0.90929,-1.47316 0.98442,-1.52858 2.24845,-1.65003 2.12786,-0.20447 2.36109,-0.58518 2.36109,-3.86436 0,-2.49652 -0.0602,-2.85007 -0.57567,-3.39876 -0.39325,-0.41859 -0.87466,-0.61228 -1.52136,-0.61237 -0.81018,-1.1e-4 -1.11408,-0.19558 -2.11563,-1.35857 -1.7147,-1.99109 -3.02321,-2.49323 -7.95817,-3.05408 -2.841838,-0.32297 -7.995286,-0.48421 -13.152171,-0.48421 z m 0.187587,1.62522 c 10.620401,0 16.028294,0.41782 17.925004,1.38545 3.26366,1.66499 3.9329,5.32027 1.78129,9.72964 -1.62747,3.33524 -5.34123,6.12997 -8.493025,6.39134 -1.982626,0.16442 -2.938868,-0.28178 -3.274738,-1.52911 -0.398499,-1.4799 -2.148546,-3.29693 -4.102073,-4.25865 -3.598632,-1.77161 -7.507465,-1.20797 -10.437606,1.50482 -1.127924,1.04426 -1.675799,1.77782 -1.872237,2.50734 -0.192823,0.71608 -0.513185,1.15254 -1.048514,1.42937 -1.097087,0.56733 -2.542858,0.48432 -4.325319,-0.24857 -2.995242,-1.23156 -5.104698,-3.24311 -6.443016,-6.14381 -1.415826,-3.06868 -1.364425,-5.5844 0.157096,-7.6848 1.811578,-2.50081 5.613458,-3.08302 20.133138,-3.08302 z"
       style="fill:#eeeeee;stroke-width:0.26458332"
       inkscape:connector-curvature="0" />
    <path
       id="path4555"
       d="m 86.126156,155.47755 c -0.872604,-0.0271 -2.000459,0.0999 -2.199349,0.33952 -0.315164,0.37974 -4.010776,10.97176 -4.012676,11.50058 -0.0011,0.29159 1.308902,-0.43346 3.66541,-2.02881 0.467694,-0.31662 1.013516,-1.54317 2.175577,-4.89118 0.853051,-2.4577 1.487947,-4.57096 1.410768,-4.69583 -0.08439,-0.13654 -0.516167,-0.20802 -1.03973,-0.22428 z m -5.836854,0.22738 c -1.599218,0.0247 -4.717058,0.23721 -5.863206,0.43718 -0.471175,0.0822 -0.963504,0.3526 -1.093991,0.601 -0.130487,0.2484 -1.043083,2.80938 -2.027783,5.69112 l -1.790073,5.23948 1.031978,1.06091 c 1.251498,1.2864 2.426174,2.03979 3.895887,2.49804 1.259284,0.39265 1.50881,0.37005 1.816428,-0.1633 0.620043,-1.07504 5.218861,-15.18031 4.994526,-15.31896 -0.06623,-0.0409 -0.430691,-0.0537 -0.963766,-0.0455 z"
       style="fill:url(#linearGradient4627);fill-opacity:1;stroke-width:0.26458332"
       inkscape:connector-curvature="0" />
    <path
       style="fill:#000000;stroke-width:0.26458332"
       d=""
       id="path4529"
       inkscape:connector-curvature="0" />
    <path
       inkscape:connector-curvature="0"
       style="fill:#000000;stroke-width:0.26458332"
       d="m 87.398429,153.22394 c -5.156882,0 -10.317197,0.16124 -13.173871,0.48421 -4.706197,0.53207 -6.143061,1.09982 -7.874971,3.11092 -0.89947,1.04446 -1.285303,1.30163 -1.951821,1.30173 -0.456821,7e-5 -1.079727,0.20836 -1.384411,0.46302 -0.495699,0.41432 -0.557472,0.76778 -0.58911,3.36052 -0.03456,2.83208 -0.01982,2.91128 0.671277,3.50573 0.440383,0.3788 1.04934,0.60823 1.614371,0.60823 0.828355,0 1.001014,0.14898 1.988507,1.71256 2.89537,4.5845 8.872633,7.41005 12.024075,5.68441 0.582083,-0.31875 1.48569,-0.79728 2.008145,-1.06351 0.522454,-0.26624 1.262911,-0.89522 1.645893,-1.39733 1.005107,-1.31777 3.107508,-2.29161 4.93045,-2.28461 1.97118,0.008 3.382602,0.69679 4.80074,2.34353 0.64158,0.74499 1.338799,1.35488 1.54926,1.35495 0.21046,7e-5 0.840515,0.3172 1.399915,0.70487 0.559398,0.38766 1.458497,0.78918 1.998327,0.89245 0.539834,0.10365 1.160444,0.15202 1.378724,0.10852 0.21828,-0.0435 0.81359,-0.16143 1.32292,-0.26252 2.929231,-0.58134 6.538391,-3.26207 8.355041,-6.2053 0.9093,-1.47316 0.98443,-1.52858 2.24845,-1.65003 2.12787,-0.20447 2.36109,-0.58518 2.36109,-3.86436 0,-2.49652 -0.0602,-2.85007 -0.57567,-3.39876 -0.39325,-0.41859 -0.87466,-0.61228 -1.52136,-0.61237 -0.81018,-1.1e-4 -1.11408,-0.19558 -2.11563,-1.35857 -1.7147,-1.99109 -3.02321,-2.49323 -7.95817,-3.05408 -2.841841,-0.32297 -7.995286,-0.48421 -13.152171,-0.48421 z m 0.187587,1.62522 c 10.620403,0 16.028294,0.41782 17.925004,1.38545 3.26366,1.66499 3.93291,5.32027 1.78129,9.72964 -1.62747,3.33524 -5.34123,6.12997 -8.493021,6.39134 -1.98263,0.16442 -2.938871,-0.28178 -3.274741,-1.52911 -0.3985,-1.47989 -2.148546,-3.29693 -4.102074,-4.25865 -3.598632,-1.77161 -7.507464,-1.20797 -10.437606,1.50482 -1.127924,1.04426 -1.675799,1.77782 -1.872236,2.50734 -0.192823,0.71608 -0.513186,1.15254 -1.048515,1.42937 -1.097087,0.56733 -2.542857,0.48432 -4.325318,-0.24857 -2.995242,-1.23155 -5.104699,-3.2431 -6.443017,-6.14381 -1.415825,-3.06868 -1.364425,-5.5844 0.157096,-7.6848 1.811579,-2.50081 5.613458,-3.08302 20.133138,-3.08302 z"
       id="path4617" />
    <text
       xml:space="preserve"
       style="font-style:normal;font-variant:normal;font-weight:normal;font-stretch:normal;font-size:27.41246414px;line-height:1.25;font-family:Ubuntu;-inkscape-font-specification:Ubuntu;letter-spacing:0px;word-spacing:0px;fill:#000000;fill-opacity:1;stroke:none;stroke-width:0.26458329;"
       x="121.68942"
       y="170.77232"
       id="text1803"><tspan
         sodipodi:role="line"
         id="tspan1801"
         x="121.68942"
         y="170.77232"
         style="font-style:normal;font-variant:normal;font-weight:600;font-stretch:normal;font-family:'Source Sans Pro';-inkscape-font-specification:'Source Sans Pro Semi-Bold';fill:#000000;stroke-width:0.26458329;">Planga</tspan></text>
  </g>
</svg>
